<svg id="visual" viewBox="0 0 675 900" width="675" height="900" xmlns="http://www.w3.org/2000/svg" xmlns:xlink="http://www.w3.org/1999/xlink" version="1.1"><rect x="0" y="0" width="675" height="900" fill="#45474B"></rect><path d="M0 529L16 545.3C32 561.7 64 594.3 96.2 609.5C128.3 624.7 160.7 622.3 192.8 608.5C225 594.7 257 569.3 289.2 564.5C321.3 559.7 353.7 575.3 385.8 577.5C418 579.7 450 568.3 482.2 571.8C514.3 575.3 546.7 593.7 578.8 588.3C611 583 643 554 659 539.5L675 525L675 901L659 901C643 901 611 901 578.8 901C546.7 901 514.3 901 482.2 901C450 901 418 901 385.8 901C353.7 901 321.3 901 289.2 901C257 901 225 901 192.8 901C160.7 901 128.3 901 96.2 901C64 901 32 901 16 901L0 901Z" fill="#8eb486"></path><path d="M0 593L16 604.7C32 616.3 64 639.7 96.2 641.7C128.3 643.7 160.7 624.3 192.8 627.2C225 630 257 655 289.2 659.7C321.3 664.3 353.7 648.7 385.8 652.8C418 657 450 681 482.2 675.2C514.3 669.3 546.7 633.7 578.8 614.5C611 595.3 643 592.7 659 591.3L675 590L675 901L659 901C643 901 611 901 578.8 901C546.7 901 514.3 901 482.2 901C450 901 418 901 385.8 901C353.7 901 321.3 901 289.2 901C257 901 225 901 192.8 901C160.7 901 128.3 901 96.2 901C64 901 32 901 16 901L0 901Z" fill="#7ca573"></path><path d="M0 709L16 703.2C32 697.3 64 685.7 96.2 685.8C128.3 686 160.7 698 192.8 703.3C225 708.7 257 707.3 289.2 700C321.3 692.7 353.7 679.3 385.8 679.8C418 680.3 450 694.7 482.2 710.8C514.3 727 546.7 745 578.8 739C611 733 643 703 659 688L675 673L675 901L659 901C643 901 611 901 578.8 901C546.7 901 514.3 901 482.2 901C450 901 418 901 385.8 901C353.7 901 321.3 901 289.2 901C257 901 225 901 192.8 901C160.7 901 128.3 901 96.2 901C64 901 32 901 16 901L0 901Z" fill="#6b9661"></path><path d="M0 762L16 769.5C32 777 64 792 96.2 797.5C128.3 803 160.7 799 192.8 797.2C225 795.3 257 795.7 289.2 790.7C321.3 785.7 353.7 775.3 385.8 771.3C418 767.3 450 769.7 482.2 773C514.3 776.3 546.7 780.7 578.8 777.2C611 773.7 643 762.3 659 756.7L675 751L675 901L659 901C643 901 611 901 578.8 901C546.7 901 514.3 901 482.2 901C450 901 418 901 385.8 901C353.7 901 321.3 901 289.2 901C257 901 225 901 192.8 901C160.7 901 128.3 901 96.2 901C64 901 32 901 16 901L0 901Z" fill="#59874f"></path><path d="M0 790L16 790.5C32 791 64 792 96.2 800.5C128.3 809 160.7 825 192.8 831.5C225 838 257 835 289.2 838C321.3 841 353.7 850 385.8 847.7C418 845.3 450 831.7 482.2 821.8C514.3 812 546.7 806 578.8 812.2C611 818.3 643 836.7 659 845.8L675 855L675 901L659 901C643 901 611 901 578.8 901C546.7 901 514.3 901 482.2 901C450 901 418 901 385.8 901C353.7 901 321.3 901 289.2 901C257 901 225 901 192.8 901C160.7 901 128.3 901 96.2 901C64 901 32 901 16 901L0 901Z" fill="#48793e"></path></svg>