<svg id="visual" viewBox="0 0 1440 540" width="1440" height="540" xmlns="http://www.w3.org/2000/svg" xmlns:xlink="http://www.w3.org/1999/xlink" version="1.1"><path d="M0 442L34.3 432.2C68.7 422.3 137.3 402.7 205.8 390.7C274.3 378.7 342.7 374.3 411.2 385.2C479.7 396 548.3 422 617 429.5C685.7 437 754.3 426 823 428C891.7 430 960.3 445 1028.8 446.7C1097.3 448.3 1165.7 436.7 1234.2 421.3C1302.7 406 1371.3 387 1405.7 377.5L1440 368L1440 541L1405.7 541C1371.3 541 1302.7 541 1234.2 541C1165.7 541 1097.3 541 1028.8 541C960.3 541 891.7 541 823 541C754.3 541 685.7 541 617 541C548.3 541 479.7 541 411.2 541C342.7 541 274.3 541 205.8 541C137.3 541 68.7 541 34.3 541L0 541Z" fill="#c1ebb9"></path><path d="M0 456L34.3 456.8C68.7 457.7 137.3 459.3 205.8 451.5C274.3 443.7 342.7 426.3 411.2 415C479.7 403.7 548.3 398.3 617 408.3C685.7 418.3 754.3 443.7 823 456.7C891.7 469.7 960.3 470.3 1028.8 470.2C1097.3 470 1165.7 469 1234.2 463C1302.7 457 1371.3 446 1405.7 440.5L1440 435L1440 541L1405.7 541C1371.3 541 1302.7 541 1234.2 541C1165.7 541 1097.3 541 1028.8 541C960.3 541 891.7 541 823 541C754.3 541 685.7 541 617 541C548.3 541 479.7 541 411.2 541C342.7 541 274.3 541 205.8 541C137.3 541 68.7 541 34.3 541L0 541Z" fill="#b0d8a8"></path><path d="M0 449L34.3 452.5C68.7 456 137.3 463 205.8 472.3C274.3 481.7 342.7 493.3 411.2 498C479.7 502.7 548.3 500.3 617 490.3C685.7 480.3 754.3 462.7 823 457.8C891.7 453 960.3 461 1028.8 462.5C1097.3 464 1165.7 459 1234.2 461.7C1302.7 464.3 1371.3 474.7 1405.7 479.8L1440 485L1440 541L1405.7 541C1371.3 541 1302.7 541 1234.2 541C1165.7 541 1097.3 541 1028.8 541C960.3 541 891.7 541 823 541C754.3 541 685.7 541 617 541C548.3 541 479.7 541 411.2 541C342.7 541 274.3 541 205.8 541C137.3 541 68.7 541 34.3 541L0 541Z" fill="#9fc697"></path><path d="M0 519L34.3 515.3C68.7 511.7 137.3 504.3 205.8 498.7C274.3 493 342.7 489 411.2 491.5C479.7 494 548.3 503 617 500.3C685.7 497.7 754.3 483.3 823 478.7C891.7 474 960.3 479 1028.8 488C1097.3 497 1165.7 510 1234.2 509.5C1302.7 509 1371.3 495 1405.7 488L1440 481L1440 541L1405.7 541C1371.3 541 1302.7 541 1234.2 541C1165.7 541 1097.3 541 1028.8 541C960.3 541 891.7 541 823 541C754.3 541 685.7 541 617 541C548.3 541 479.7 541 411.2 541C342.7 541 274.3 541 205.8 541C137.3 541 68.7 541 34.3 541L0 541Z" fill="#8eb486"></path></svg>