<svg id="visual" viewBox="0 0 675 900" width="675" height="900" xmlns="http://www.w3.org/2000/svg" xmlns:xlink="http://www.w3.org/1999/xlink" version="1.1"><rect width="675" height="900" fill="#b9e1b0"></rect><g><g transform="translate(380 602)"><path d="M0 -121.9L105.6 -61L105.6 61L0 121.9L-105.6 61L-105.6 -61Z" fill="#8eb486"></path></g><g transform="translate(493 323)"><path d="M0 -70L60.6 -35L60.6 35L0 70L-60.6 35L-60.6 -35Z" fill="#8eb486"></path></g><g transform="translate(38 52)"><path d="M0 -88L76.2 -44L76.2 44L0 88L-76.2 44L-76.2 -44Z" fill="#8eb486"></path></g><g transform="translate(364 79)"><path d="M0 -68L58.9 -34L58.9 34L0 68L-58.9 34L-58.9 -34Z" fill="#8eb486"></path></g><g transform="translate(660 591)"><path d="M0 -66L57.2 -33L57.2 33L0 66L-57.2 33L-57.2 -33Z" fill="#8eb486"></path></g><g transform="translate(68 861)"><path d="M0 -63L54.6 -31.5L54.6 31.5L0 63L-54.6 31.5L-54.6 -31.5Z" fill="#8eb486"></path></g></g></svg>