<?xml version="1.0" encoding="utf-8"?>
<svg xmlns="http://www.w3.org/2000/svg" viewBox="0 0 500 500" xmlns:bx="https://boxy-svg.com" width="500px" height="500px"><defs><bx:export><bx:file format="svg"/></bx:export></defs><polygon style="stroke: rgba(0, 0, 0, 0); paint-order: stroke; fill: rgb(142, 180, 134);" points="152.202 179.428 351.527 179.439 138.406 280.932"/><polygon style="stroke: rgba(0, 0, 0, 0); paint-order: stroke; fill: rgb(252, 199, 55);" points="180.323 286.284 392.399 178.306 387.295 207.692 172.163 319.796"/><polygon style="stroke: rgba(0, 0, 0, 0); paint-order: stroke; fill: rgb(242, 107, 15);" points="296.097 274.228 296.831 304.342 118.603 399.094 122.409 367.783"/><polygon style="stroke: rgba(0, 0, 0, 0); paint-order: stroke; fill: rgb(255, 116, 139);" points="163.659 395.14 361.137 292.318 389.662 394.83"/><path d="M 251.735 78.877 C 287.285 78.877 316.212 123.626 317.12 179.372 L 309.139 179.372 C 308.232 128.299 284.52 91.477 251.932 91.477 C 219.343 91.477 195.972 128.299 195.065 179.372 L 186.35 179.372 C 187.26 123.626 216.185 78.877 251.735 78.877 Z" style="stroke: rgba(0, 0, 0, 0); paint-order: stroke; fill: rgb(153, 124, 112);"/></svg>