<?xml version="1.0" encoding="utf-8"?>
<svg xmlns="http://www.w3.org/2000/svg" viewBox="0 0 500 500" xmlns:bx="https://boxy-svg.com" width="500px" height="500px"><defs><bx:export><bx:file format="svg"/></bx:export></defs><g transform="matrix(0.69265, 0, 0, 0.69265, -61.577869, 85.648804)" style=""><polygon style="stroke: rgba(0, 0, 0, 0); paint-order: stroke; fill: rgb(142, 180, 134);" points="143.291 142.128 365.584 142.141 127.903 255.329"/><polygon style="stroke: rgba(0, 0, 0, 0); paint-order: stroke; fill: rgb(252, 199, 55);" points="174.652 261.298 411.167 140.877 405.474 173.649 165.552 298.672"/><polygon style="stroke: rgba(0, 0, 0, 0); paint-order: stroke; fill: rgb(242, 107, 15);" points="303.766 247.852 304.586 281.436 105.819 387.107 110.064 352.188"/><polygon style="stroke: rgba(0, 0, 0, 0); paint-order: stroke; fill: rgb(255, 116, 139);" points="156.068 382.698 376.302 268.026 408.115 382.351"/><path d="M 254.292 29.99 C 293.938 29.99 326.198 79.896 327.212 142.066 L 318.312 142.066 C 317.299 85.107 290.855 44.042 254.511 44.042 C 218.167 44.042 192.104 85.107 191.091 142.066 L 181.372 142.066 C 182.387 79.896 214.646 29.99 254.292 29.99 Z" style="stroke: rgba(0, 0, 0, 0); paint-order: stroke; fill: rgb(153, 124, 112);"/></g><g transform="matrix(1.77816, 0, 0, 1.77816, -9.118235, -3.845307)" style=""><text style="fill: rgb(51, 51, 51); font-family: Arial, sans-serif; font-size: 50px; white-space: pre;" x="145.708" y="159.114">AYEE</text><text style="fill: rgb(51, 51, 51); font-family: Arial, sans-serif; font-size: 14px; white-space: pre;" x="145.452" y="180.261">online shopping</text></g></svg>