<svg width="847" height="478" viewBox="0 0 847 478" fill="none" xmlns="http://www.w3.org/2000/svg">
<g clip-path="url(#clip0_10_306)">
<path d="M152.202 179.428L351.527 179.439L138.406 280.932L152.202 179.428Z" fill="#8EB486"/>
<path d="M180.323 286.284L392.399 178.306L387.295 207.692L172.163 319.796L180.323 286.284Z" fill="#FCC737"/>
<path d="M296.097 274.228L296.831 304.342L118.603 399.094L122.409 367.783L296.097 274.228Z" fill="#F26B0F"/>
<path d="M163.659 395.14L361.137 292.318L389.662 394.83L163.659 395.14Z" fill="#FF748B"/>
<path d="M251.735 78.877C287.285 78.877 316.212 123.626 317.12 179.372H309.139C308.232 128.299 284.52 91.477 251.932 91.477C219.343 91.477 195.972 128.299 195.065 179.372H186.35C187.26 123.626 216.185 78.877 251.735 78.877Z" fill="#997C70"/>
</g>
<g clip-path="url(#clip1_10_306)">
<path d="M415.824 313L448.812 227.102H461.059L496.215 313H483.266L473.246 286.984H437.328L427.895 313H415.824ZM440.609 277.727H469.73L460.766 253.938C458.031 246.711 456 240.773 454.672 236.125C453.578 241.633 452.035 247.102 450.043 252.531L440.609 277.727ZM520.59 313V276.613L487.484 227.102H501.312L518.246 253C521.371 257.844 524.281 262.688 526.977 267.531C529.555 263.039 532.68 257.98 536.352 252.355L552.992 227.102H566.234L531.957 276.613V313H520.59ZM576.664 313V227.102H638.773V237.238H588.031V263.547H635.551V273.625H588.031V302.863H640.766V313H576.664ZM656.703 313V227.102H718.812V237.238H668.07V263.547H715.59V273.625H668.07V302.863H720.805V313H656.703ZM417.328 348.629C417.328 344.788 418.396 341.943 420.531 340.094C422.315 338.557 424.49 337.789 427.055 337.789C429.906 337.789 432.237 338.727 434.047 340.602C435.857 342.464 436.762 345.042 436.762 348.336C436.762 351.005 436.358 353.108 435.551 354.645C434.757 356.168 433.591 357.353 432.055 358.199C430.531 359.046 428.865 359.469 427.055 359.469C424.151 359.469 421.801 358.538 420.004 356.676C418.22 354.814 417.328 352.132 417.328 348.629ZM420.941 348.629C420.941 351.285 421.521 353.277 422.68 354.605C423.839 355.921 425.297 356.578 427.055 356.578C428.799 356.578 430.251 355.914 431.41 354.586C432.569 353.258 433.148 351.233 433.148 348.512C433.148 345.947 432.562 344.007 431.391 342.691C430.232 341.363 428.786 340.699 427.055 340.699C425.297 340.699 423.839 341.357 422.68 342.672C421.521 343.987 420.941 345.973 420.941 348.629ZM440.902 359V338.258H444.066V341.207C445.59 338.928 447.79 337.789 450.668 337.789C451.918 337.789 453.064 338.017 454.105 338.473C455.16 338.915 455.948 339.501 456.469 340.23C456.99 340.96 457.354 341.826 457.562 342.828C457.693 343.479 457.758 344.618 457.758 346.246V359H454.242V346.383C454.242 344.951 454.105 343.883 453.832 343.18C453.559 342.464 453.07 341.897 452.367 341.48C451.677 341.051 450.863 340.836 449.926 340.836C448.428 340.836 447.133 341.311 446.039 342.262C444.958 343.212 444.418 345.016 444.418 347.672V359H440.902ZM463.09 359V330.367H466.605V359H463.09ZM472.094 334.41V330.367H475.609V334.41H472.094ZM472.094 359V338.258H475.609V359H472.094ZM480.98 359V338.258H484.145V341.207C485.668 338.928 487.868 337.789 490.746 337.789C491.996 337.789 493.142 338.017 494.184 338.473C495.238 338.915 496.026 339.501 496.547 340.23C497.068 340.96 497.432 341.826 497.641 342.828C497.771 343.479 497.836 344.618 497.836 346.246V359H494.32V346.383C494.32 344.951 494.184 343.883 493.91 343.18C493.637 342.464 493.148 341.897 492.445 341.48C491.755 341.051 490.941 340.836 490.004 340.836C488.507 340.836 487.211 341.311 486.117 342.262C485.036 343.212 484.496 345.016 484.496 347.672V359H480.98ZM517.445 352.32L521.078 352.77C520.505 354.892 519.444 356.539 517.895 357.711C516.345 358.883 514.366 359.469 511.957 359.469C508.923 359.469 506.514 358.538 504.73 356.676C502.96 354.801 502.074 352.177 502.074 348.805C502.074 345.315 502.973 342.607 504.77 340.68C506.566 338.753 508.897 337.789 511.762 337.789C514.535 337.789 516.801 338.733 518.559 340.621C520.316 342.509 521.195 345.165 521.195 348.59C521.195 348.798 521.189 349.111 521.176 349.527H505.707C505.837 351.806 506.482 353.551 507.641 354.762C508.799 355.973 510.245 356.578 511.977 356.578C513.266 356.578 514.366 356.24 515.277 355.562C516.189 354.885 516.911 353.805 517.445 352.32ZM505.902 346.637H517.484C517.328 344.892 516.885 343.583 516.156 342.711C515.036 341.357 513.585 340.68 511.801 340.68C510.186 340.68 508.826 341.22 507.719 342.301C506.625 343.382 506.02 344.827 505.902 346.637ZM535.238 352.809L538.715 352.262C538.91 353.655 539.451 354.723 540.336 355.465C541.234 356.207 542.484 356.578 544.086 356.578C545.701 356.578 546.898 356.253 547.68 355.602C548.461 354.938 548.852 354.163 548.852 353.277C548.852 352.483 548.507 351.858 547.816 351.402C547.335 351.09 546.137 350.693 544.223 350.211C541.645 349.56 539.854 349 538.852 348.531C537.862 348.049 537.107 347.392 536.586 346.559C536.078 345.712 535.824 344.781 535.824 343.766C535.824 342.841 536.033 341.988 536.449 341.207C536.879 340.413 537.458 339.755 538.188 339.234C538.734 338.831 539.477 338.492 540.414 338.219C541.365 337.932 542.38 337.789 543.461 337.789C545.089 337.789 546.514 338.023 547.738 338.492C548.975 338.961 549.887 339.599 550.473 340.406C551.059 341.201 551.462 342.268 551.684 343.609L548.246 344.078C548.09 343.01 547.634 342.177 546.879 341.578C546.137 340.979 545.082 340.68 543.715 340.68C542.1 340.68 540.948 340.947 540.258 341.48C539.568 342.014 539.223 342.639 539.223 343.355C539.223 343.811 539.366 344.221 539.652 344.586C539.939 344.964 540.388 345.276 541 345.523C541.352 345.654 542.387 345.953 544.105 346.422C546.592 347.086 548.324 347.633 549.301 348.062C550.29 348.479 551.065 349.091 551.625 349.898C552.185 350.706 552.465 351.708 552.465 352.906C552.465 354.078 552.12 355.185 551.43 356.227C550.753 357.255 549.77 358.056 548.48 358.629C547.191 359.189 545.733 359.469 544.105 359.469C541.41 359.469 539.353 358.909 537.934 357.789C536.527 356.669 535.629 355.009 535.238 352.809ZM556.645 359V330.367H560.16V340.641C561.801 338.74 563.871 337.789 566.371 337.789C567.908 337.789 569.242 338.095 570.375 338.707C571.508 339.306 572.315 340.139 572.797 341.207C573.292 342.275 573.539 343.824 573.539 345.855V359H570.023V345.855C570.023 344.098 569.639 342.822 568.871 342.027C568.116 341.22 567.042 340.816 565.648 340.816C564.607 340.816 563.624 341.09 562.699 341.637C561.788 342.171 561.137 342.9 560.746 343.824C560.355 344.749 560.16 346.025 560.16 347.652V359H556.645ZM577.602 348.629C577.602 344.788 578.669 341.943 580.805 340.094C582.589 338.557 584.763 337.789 587.328 337.789C590.18 337.789 592.51 338.727 594.32 340.602C596.13 342.464 597.035 345.042 597.035 348.336C597.035 351.005 596.632 353.108 595.824 354.645C595.03 356.168 593.865 357.353 592.328 358.199C590.805 359.046 589.138 359.469 587.328 359.469C584.424 359.469 582.074 358.538 580.277 356.676C578.493 354.814 577.602 352.132 577.602 348.629ZM581.215 348.629C581.215 351.285 581.794 353.277 582.953 354.605C584.112 355.921 585.57 356.578 587.328 356.578C589.073 356.578 590.525 355.914 591.684 354.586C592.842 353.258 593.422 351.233 593.422 348.512C593.422 345.947 592.836 344.007 591.664 342.691C590.505 341.363 589.06 340.699 587.328 340.699C585.57 340.699 584.112 341.357 582.953 342.672C581.794 343.987 581.215 345.973 581.215 348.629ZM601.176 366.949V338.258H604.379V340.953C605.134 339.898 605.987 339.111 606.938 338.59C607.888 338.056 609.04 337.789 610.395 337.789C612.165 337.789 613.728 338.245 615.082 339.156C616.436 340.068 617.458 341.357 618.148 343.023C618.839 344.677 619.184 346.493 619.184 348.473C619.184 350.595 618.799 352.509 618.031 354.215C617.276 355.908 616.169 357.21 614.711 358.121C613.266 359.02 611.742 359.469 610.141 359.469C608.969 359.469 607.914 359.221 606.977 358.727C606.052 358.232 605.29 357.607 604.691 356.852V366.949H601.176ZM604.359 348.746C604.359 351.415 604.9 353.388 605.98 354.664C607.061 355.94 608.37 356.578 609.906 356.578C611.469 356.578 612.803 355.921 613.91 354.605C615.03 353.277 615.59 351.227 615.59 348.453C615.59 345.81 615.043 343.831 613.949 342.516C612.868 341.201 611.573 340.543 610.062 340.543C608.565 340.543 607.237 341.246 606.078 342.652C604.932 344.046 604.359 346.077 604.359 348.746ZM623.441 366.949V338.258H626.645V340.953C627.4 339.898 628.253 339.111 629.203 338.59C630.154 338.056 631.306 337.789 632.66 337.789C634.431 337.789 635.993 338.245 637.348 339.156C638.702 340.068 639.724 341.357 640.414 343.023C641.104 344.677 641.449 346.493 641.449 348.473C641.449 350.595 641.065 352.509 640.297 354.215C639.542 355.908 638.435 357.21 636.977 358.121C635.531 359.02 634.008 359.469 632.406 359.469C631.234 359.469 630.18 359.221 629.242 358.727C628.318 358.232 627.556 357.607 626.957 356.852V366.949H623.441ZM626.625 348.746C626.625 351.415 627.165 353.388 628.246 354.664C629.327 355.94 630.635 356.578 632.172 356.578C633.734 356.578 635.069 355.921 636.176 354.605C637.296 353.277 637.855 351.227 637.855 348.453C637.855 345.81 637.309 343.831 636.215 342.516C635.134 341.201 633.839 340.543 632.328 340.543C630.831 340.543 629.503 341.246 628.344 342.652C627.198 344.046 626.625 346.077 626.625 348.746ZM645.727 334.41V330.367H649.242V334.41H645.727ZM645.727 359V338.258H649.242V359H645.727ZM654.613 359V338.258H657.777V341.207C659.301 338.928 661.501 337.789 664.379 337.789C665.629 337.789 666.775 338.017 667.816 338.473C668.871 338.915 669.659 339.501 670.18 340.23C670.701 340.96 671.065 341.826 671.273 342.828C671.404 343.479 671.469 344.618 671.469 346.246V359H667.953V346.383C667.953 344.951 667.816 343.883 667.543 343.18C667.27 342.464 666.781 341.897 666.078 341.48C665.388 341.051 664.574 340.836 663.637 340.836C662.139 340.836 660.844 341.311 659.75 342.262C658.669 343.212 658.129 345.016 658.129 347.672V359H654.613ZM676.234 360.719L679.652 361.227C679.796 362.281 680.193 363.049 680.844 363.531C681.716 364.182 682.908 364.508 684.418 364.508C686.046 364.508 687.302 364.182 688.188 363.531C689.073 362.88 689.672 361.969 689.984 360.797C690.167 360.081 690.251 358.577 690.238 356.285C688.702 358.095 686.788 359 684.496 359C681.645 359 679.438 357.971 677.875 355.914C676.312 353.857 675.531 351.389 675.531 348.512C675.531 346.533 675.889 344.71 676.605 343.043C677.322 341.363 678.357 340.068 679.711 339.156C681.078 338.245 682.68 337.789 684.516 337.789C686.964 337.789 688.982 338.779 690.57 340.758V338.258H693.812V356.188C693.812 359.417 693.48 361.702 692.816 363.043C692.165 364.397 691.124 365.465 689.691 366.246C688.272 367.027 686.521 367.418 684.438 367.418C681.964 367.418 679.965 366.858 678.441 365.738C676.918 364.632 676.182 362.958 676.234 360.719ZM679.145 348.258C679.145 350.979 679.685 352.965 680.766 354.215C681.846 355.465 683.201 356.09 684.828 356.09C686.443 356.09 687.797 355.471 688.891 354.234C689.984 352.984 690.531 351.031 690.531 348.375C690.531 345.836 689.965 343.922 688.832 342.633C687.712 341.344 686.358 340.699 684.77 340.699C683.207 340.699 681.879 341.337 680.785 342.613C679.691 343.876 679.145 345.758 679.145 348.258Z" fill="black"/>
</g>
<defs>
<clipPath id="clip0_10_306">
<rect width="273.796" height="320.217" fill="white" transform="translate(118.603 78.877)"/>
</clipPath>
<clipPath id="clip1_10_306">
<rect width="312" height="166" fill="white" transform="translate(416 202)"/>
</clipPath>
</defs>
</svg>
